<svg width="32" height="32" viewBox="0 0 32 32" fill="none" xmlns="http://www.w3.org/2000/svg">
<path d="M1.62117 19.0461C1.62117 17.2273 1.55605 15.4029 1.63597 13.5897C1.76621 10.6219 4.00399 7.9848 6.83083 7.3038C10.1046 6.51631 12.9226 7.5308 14.592 10.1483C15.9921 12.3454 15.9448 14.5874 14.5536 16.7509C13.2511 18.7771 11.3123 19.9597 8.77261 20.1139C8.04148 20.1587 7.17715 20.1307 7.19787 19.119C7.21267 18.2782 7.45243 17.6673 8.65124 17.6337C9.79602 17.6102 10.8852 17.1615 11.6837 16.3845C12.4822 15.6075 12.9261 14.5645 12.9196 13.4804C12.8723 11.4206 10.889 9.63825 8.64533 9.64105C8.07786 9.63475 7.5147 9.73513 6.9885 9.93638C6.4623 10.1376 5.98353 10.4357 5.5799 10.8134C5.17628 11.1912 4.85584 11.6409 4.63715 12.1367C4.41846 12.6326 4.30588 13.1645 4.30592 13.7018C4.23488 17.1993 4.27336 20.708 4.29112 24.197C4.29112 25.1106 4.24672 25.8617 2.95911 25.8785C1.62413 25.9093 1.60637 25.1134 1.61229 24.2139C1.62709 22.4875 1.61229 20.7612 1.61229 19.0349L1.62117 19.0461Z" fill="#2A86F7"/>
<path d="M23.7947 15.103C22.365 16.5043 21.0685 17.785 19.778 19.0657C19.0794 19.7579 18.4045 20.5454 17.3715 19.4973C16.4184 18.5304 17.333 17.9896 17.9635 17.4403C19.331 16.2324 20.7429 15.0666 22.3236 13.7242C20.6157 12.1436 19.2244 10.8433 17.8184 9.56258C17.1909 9.00209 16.4953 8.44159 17.4248 7.61767C18.3542 6.79375 19.0024 7.33743 19.6685 8.01562C20.9265 9.31876 22.2259 10.5883 23.6645 12.0259C25.0675 10.7004 26.4173 9.43367 27.7523 8.15294C28.3857 7.54481 28.9807 6.79935 29.9309 7.69894C30.881 8.59853 30.2091 9.25151 29.478 9.89887C28.146 11.0759 26.8435 12.281 25.4109 13.5813C26.9146 15.0638 28.2821 16.465 29.697 17.7878C30.3275 18.3819 30.7626 18.9284 29.993 19.6598C29.1524 20.4557 28.6166 19.8056 28.0631 19.2619C26.6926 17.9223 25.3221 16.5883 23.7947 15.103Z" fill="#2A86F7"/>
</svg>
