<svg width="16" height="16" viewBox="0 0 16 16" fill="none" xmlns="http://www.w3.org/2000/svg">
<path fill-rule="evenodd" clip-rule="evenodd" d="M13.033 16C12.9406 15.9997 12.8503 15.9723 12.7733 15.921L7.27239 12.2351H6.16584C3.97244 12.2633 1.93354 11.1035 0.828659 9.19926C-0.27622 7.29498 -0.27622 4.94064 0.828659 3.03635C1.93354 1.13207 3.97244 -0.0276792 6.16584 0.000502152H9.91139C12.5459 -0.000446656 14.882 1.70214 15.6993 4.21896C16.5166 6.73578 15.6297 9.4953 13.5017 11.0562V15.529C13.5018 15.7024 13.4069 15.8619 13.2549 15.944C13.1868 15.9811 13.1105 16.0003 13.033 16ZM6.16584 0.941472C4.30846 0.91553 2.58101 1.89642 1.64479 3.50865C0.708567 5.12088 0.708567 7.11474 1.64479 8.72697C2.58101 10.3392 4.30846 11.3201 6.16584 11.2941H7.41369C7.5061 11.2943 7.59641 11.3218 7.67341 11.3731L12.5653 14.65V10.8112C12.5652 10.6543 12.6428 10.5077 12.7723 10.4202C14.6594 9.15419 15.4995 6.79625 14.841 4.61434C14.1824 2.43242 12.1803 0.940751 9.91139 0.941472H6.16584Z" fill="#6D7378"/>
</svg>
